HIERARCHY
ROOT SpineBase
{
  OFFSET 0.000000 0.000000 0.000000
  CHANNELS 6 Xposition Yposition Zposition Zrotation Xrotation Yrotation
  JOINT SpineMid
  {
    OFFSET 0.000000 27.000986 0.000000
    CHANNELS 3 Zrotation Xrotation Yrotation
    JOINT SpineShoulder
    {
      OFFSET -0.040060 20.060457 -0.689425
      CHANNELS 3 Zrotation Xrotation Yrotation
      JOINT Neck
      {
        OFFSET -0.087451 6.681717 -0.514208
        CHANNELS 3 Zrotation Xrotation Yrotation
        JOINT Head
        {
          OFFSET -0.611280 12.274549 0.851936
          CHANNELS 3 Zrotation Xrotation Yrotation
          End Site
          {
            OFFSET 0 0 0
          }
        }
      }
      JOINT ShoulderLeft
      {
        OFFSET -12.197240 -1.760647 4.482674
        CHANNELS 3 Zrotation Xrotation Yrotation
        JOINT ElbowLeft
        {
          OFFSET -6.450818 -19.639471 -4.694461
          CHANNELS 3 Zrotation Xrotation Yrotation
          JOINT WristLeft
          {
            OFFSET -12.625178 -15.713103 7.430157
            CHANNELS 3 Zrotation Xrotation Yrotation
            JOINT HandLeft
            {
              OFFSET -2.660642 -1.108633 0.820360
              CHANNELS 3 Zrotation Xrotation Yrotation
              JOINT HandTipLeft
              {
                OFFSET -1.204084 -1.588370 -1.246675
                CHANNELS 3 Zrotation Xrotation Yrotation
                End Site
                {
                  OFFSET 0 0 0
                }
              }
              JOINT ThumbLeft
              {
                OFFSET 0.966478 -0.435251 -2.644386
                CHANNELS 3 Zrotation Xrotation Yrotation
                End Site
                {
                  OFFSET 0 0 0
                }
              }
            }
          }
        }
      }
      JOINT ShoulderRight
      {
        OFFSET 10.348041 -0.586145 -8.261865
        CHANNELS 3 Zrotation Xrotation Yrotation
        JOINT ElbowRight
        {
          OFFSET -3.936503 -18.893142 -5.302567
          CHANNELS 3 Zrotation Xrotation Yrotation
          JOINT WristRight
          {
            OFFSET 12.747585 -16.457714 -10.631264
            CHANNELS 3 Zrotation Xrotation Yrotation
            JOINT HandRight
            {
              OFFSET 0.659833 -4.541744 3.276761
              CHANNELS 3 Zrotation Xrotation Yrotation
              JOINT HandTipRight
              {
                OFFSET -0.495184 -2.495895 0.112376
                CHANNELS 3 Zrotation Xrotation Yrotation
                End Site
                {
                  OFFSET 0 0 0
                }
              }
              JOINT ThumbRight
              {
                OFFSET -2.118998 0.350043 -3.862217
                CHANNELS 3 Zrotation Xrotation Yrotation
                End Site
                {
                  OFFSET 0 0 0
                }
              }
            }
          }
        }
      }
    }
  }
  JOINT HipLeft
  {
    OFFSET -6.457023 1.030184 -0.399839
    CHANNELS 3 Zrotation Xrotation Yrotation
    JOINT KneeLeft
    {
      OFFSET -18.834929 10.125307 -22.859331
      CHANNELS 3 Zrotation Xrotation Yrotation
      JOINT AnkleLeft
      {
        OFFSET -6.279369 -35.010219 0.350780
        CHANNELS 3 Zrotation Xrotation Yrotation
        JOINT FootLeft
        {
          OFFSET -4.966820 -2.251095 -11.318456
          CHANNELS 3 Zrotation Xrotation Yrotation
          End Site
          {
            OFFSET 0 0 0
          }
        }
      }
    }
  }
  JOINT HipRight
  {
    OFFSET 6.050827 1.453160 -5.874246
    CHANNELS 3 Zrotation Xrotation Yrotation
    JOINT KneeRight
    {
      OFFSET -20.638171 10.230334 -23.329274
      CHANNELS 3 Zrotation Xrotation Yrotation
      JOINT AnkleRight
      {
        OFFSET -2.393806 -34.588323 -3.696223
        CHANNELS 3 Zrotation Xrotation Yrotation
        JOINT FootRight
        {
          OFFSET -4.950694 -6.297970 -7.004322
          CHANNELS 3 Zrotation Xrotation Yrotation
          End Site
          {
            OFFSET 0 0 0
          }
        }
      }
    }
  }
}
MOTION
Frames: 12
Frame Time: 0.033333
27.105424 32.879296 391.292236 -0.000000 0.000000 23.637924 0.000000 0.000000 -23.637924 -0.000000 0.000000 0.000000 -0.000000 0.000000 0.000000 0.000000 0.000000 0.000000 -0.000000 0.000000 0.000000 -0.000000 0.000000 0.000000 -0.000000 0.000000 0.000000 -0.000000 0.000000 0.000000 0.000000 0.000000 0.000000 0.000000 0.000000 0.000000 -0.000000 0.000000 0.000000 -0.000000 0.000000 0.000000 -0.000000 0.000000 0.000000 -0.000000 0.000000 0.000000 0.000000 0.000000 0.000000 0.000000 0.000000 0.000000 0.000000 0.000000 -23.637924 -0.000000 0.000000 0.000000 -0.000000 0.000000 0.000000 0.000000 0.000000 0.000000 0.000000 0.000000 -23.637924 -0.000000 0.000000 0.000000 -0.000000 0.000000 0.000000 0.000000 0.000000 0.000000
27.034124 32.975134 391.232388 -0.216841 0.026870 24.729215 0.185715 -0.115116 -24.728978 -0.000000 0.000000 0.000000 -0.000000 0.000000 0.000000 0.000000 0.000000 0.000000 -0.000000 0.000000 0.000000 1.222104 2.100902 -1.152554 -1.814018 -0.520242 -3.219879 -7.386752 1.153063 7.716352 0.000000 0.000000 0.000000 0.000000 0.000000 0.000000 -0.880457 0.668072 0.112685 1.432196 -1.537404 -1.122386 -1.404526 1.617362 0.570825 10.718081 -9.210746 3.530587 0.000000 0.000000 0.000000 0.000000 0.000000 0.000000 0.185715 -0.115116 -24.728978 -0.000000 0.000000 0.000000 -0.000000 0.000000 0.000000 0.000000 0.000000 0.000000 0.185715 -0.115116 -24.728978 -0.000000 0.000000 0.000000 -3.190212 8.945558 -2.928136 0.000000 0.000000 0.000000
26.970924 33.050021 391.185034 -0.396801 0.027333 25.633940 0.345923 -0.196305 -25.633253 -0.000000 0.000000 0.000000 -0.000000 0.000000 0.000000 0.000000 0.000000 0.000000 -0.000000 0.000000 0.000000 2.031979 3.549491 -2.012850 -3.176219 -0.601975 -6.300001 -17.274685 1.904157 15.413394 0.000000 0.000000 0.000000 0.000000 0.000000 0.000000 -1.452815 1.137806 0.184120 2.449430 -2.692633 -1.972512 -2.488948 2.681112 1.078448 18.077854 -14.532278 6.749364 0.000000 0.000000 0.000000 0.000000 0.000000 0.000000 0.345923 -0.196305 -25.633253 -0.000000 0.000000 0.000000 -0.000000 0.000000 0.000000 0.000000 0.000000 0.000000 0.345923 -0.196305 -25.633253 -0.000000 0.000000 0.000000 -5.467234 15.322292 -4.458739 0.000000 0.000000 0.000000
26.915826 33.103955 391.150173 -0.539718 0.001328 26.350240 0.483053 -0.240745 -26.349219 -1.024016 -0.079321 -0.080560 1.885465 0.490039 0.035351 0.000000 0.000000 0.000000 1.192266 -1.143712 0.444237 2.319760 5.639187 -3.006259 -4.186026 -0.230443 -9.345365 -25.081446 1.682676 21.105812 0.000000 0.000000 0.000000 0.000000 0.000000 0.000000 -0.728995 1.513152 0.294545 3.093218 -3.476786 -2.564127 -3.252002 3.230461 1.475631 21.914213 -16.818646 8.613141 0.000000 0.000000 0.000000 0.000000 0.000000 0.000000 0.803900 -1.030095 -25.964788 -0.634076 0.569177 -0.377722 -0.000000 0.000000 0.000000 0.000000 0.000000 0.000000 0.483053 -0.240745 -26.349219 -0.000000 0.000000 0.000000 -7.179884 19.238619 -4.886861 0.000000 0.000000 0.000000
26.868828 33.136937 391.127805 -0.645462 -0.051187 26.876727 0.598883 -0.246135 -26.875729 -1.196427 -0.189651 -0.096541 2.139463 0.689259 0.044518 0.000000 0.000000 0.000000 1.278014 -1.627667 0.674709 2.462132 6.579536 -3.553249 -4.915496 0.637036 -12.483397 -25.177488 1.057716 23.133001 0.000000 0.000000 0.000000 0.000000 0.000000 0.000000 -0.600699 1.763430 0.297239 3.387413 -3.895270 -2.903993 -3.690641 3.287424 1.731633 22.530630 -16.852971 8.887334 0.000000 0.000000 0.000000 0.000000 0.000000 0.000000 0.953274 -1.112388 -26.423801 -0.702885 0.618012 -0.443935 -0.000000 0.000000 0.000000 0.000000 0.000000 0.000000 0.598883 -0.246135 -26.875729 -0.000000 0.000000 0.000000 -8.521265 20.876123 -4.372478 0.000000 0.000000 0.000000
26.829933 33.148968 391.117930 -0.713933 -0.130233 27.212262 0.694468 -0.210656 -27.211797 -1.285792 -0.341979 -0.107260 2.205536 0.905002 0.053459 0.000000 0.000000 0.000000 1.213293 -2.161032 0.943853 2.268814 7.092862 -3.859043 -5.420714 2.085773 -15.878111 -17.398951 0.242373 22.715784 0.000000 0.000000 0.000000 0.000000 0.000000 0.000000 -0.307933 1.906256 0.250144 3.340923 -3.948539 -2.993392 -3.801902 2.857225 1.830109 20.306909 -14.956185 7.739046 0.000000 0.000000 0.000000 0.000000 0.000000 0.000000 1.052291 -1.058118 -26.723408 -0.700721 0.596002 -0.480782 -0.000000 0.000000 0.000000 0.000000 0.000000 0.000000 0.694468 -0.210656 -27.211797 -0.000000 0.000000 0.000000 -9.536803 20.226137 -2.950914 0.000000 0.000000 0.000000
26.765933 33.160339 391.096256 -0.790707 -0.181379 27.554286 -0.065320 -0.081932 -27.584691 -0.512273 -0.179459 -0.080245 1.906611 1.223221 0.090904 0.000000 0.000000 0.000000 1.065972 -3.109843 1.342371 2.143667 8.632097 -4.871541 -12.603037 3.496694 -22.446685 -4.922388 3.342574 25.840609 0.000000 0.000000 0.000000 0.000000 0.000000 0.000000 0.236089 1.899181 0.129796 3.115073 -3.814207 -3.050962 -2.709956 0.158821 2.432033 8.184261 -4.129845 2.506750 0.000000 0.000000 0.000000 0.000000 0.000000 0.000000 1.135750 -1.028316 -27.055474 -0.686961 0.573637 -0.491445 -0.000000 0.000000 0.000000 0.000000 0.000000 0.000000 0.784922 -0.204971 -27.554134 -0.000000 0.000000 0.000000 -9.737044 9.643937 3.513617 0.000000 0.000000 0.000000
26.728095 33.127805 391.104355 -0.784816 -0.275185 27.518362 -0.038690 -0.131180 -27.548156 -0.446252 -0.231436 -0.075037 1.371304 1.496245 0.121958 0.000000 0.000000 0.000000 0.755981 -3.967948 1.718625 1.829346 9.872680 -5.694733 -18.084664 11.159475 -38.075995 15.848097 2.142746 39.506003 0.000000 0.000000 0.000000 0.000000 0.000000 0.000000 0.931586 1.919325 -0.089221 2.940730 -3.289605 -2.963478 -1.414833 -3.941733 3.214252 -3.496882 11.611902 -0.701388 0.000000 0.000000 0.000000 0.000000 0.000000 0.000000 0.823165 -0.118572 -27.519395 -0.000000 0.000000 0.000000 -0.000000 0.000000 0.000000 0.000000 0.000000 0.000000 0.823165 -0.118572 -27.519395 -0.000000 0.000000 0.000000 -8.403946 0.438146 8.506949 0.000000 0.000000 0.000000
26.703555 33.121753 391.131955 -0.801309 -0.423877 27.206294 -0.053067 -0.192407 -27.238234 -0.389552 -0.304371 -0.074138 1.428829 1.699130 0.103843 0.000000 0.000000 0.000000 0.176567 -4.455063 2.080492 -0.227056 6.926327 -3.834560 -3.765766 12.311222 -33.291983 10.679799 -4.128616 32.074192 0.000000 0.000000 0.000000 0.000000 0.000000 0.000000 1.736829 1.706451 -0.249860 0.093030 -2.177046 -1.178804 -1.084468 -2.240955 0.677514 -3.022964 7.909888 0.169854 0.000000 0.000000 0.000000 0.000000 0.000000 0.000000 0.906446 0.010598 -27.209342 -0.000000 0.000000 0.000000 -0.000000 0.000000 0.000000 0.000000 0.000000 0.000000 0.560874 0.443694 -27.911551 -0.122260 -0.771324 0.804745 -4.775404 -7.539673 12.415351 0.000000 0.000000 0.000000
26.702880 33.054333 391.208776 -0.778214 -0.673961 26.653452 -0.047518 -0.236256 -26.686444 -0.353283 -0.361268 -0.072927 1.066071 1.269320 0.086912 0.000000 0.000000 0.000000 -0.174130 -5.125065 2.468985 -3.608624 2.949847 -1.590046 1.419227 18.942885 -39.160979 18.072784 -3.763746 33.729710 0.000000 0.000000 0.000000 0.000000 0.000000 0.000000 2.463891 1.166002 -0.314146 -1.398027 0.096002 0.372524 -1.731660 -2.409870 -1.614964 1.670874 4.788501 1.082584 0.000000 0.000000 0.000000 0.000000 0.000000 0.000000 0.997856 0.253184 -26.660234 -0.000000 0.000000 0.000000 0.200812 -0.047391 -0.910427 0.000000 0.000000 0.000000 0.448024 0.882840 -27.804806 -0.184954 -0.905214 1.286815 -2.818249 -9.520410 12.596781 0.000000 0.000000 0.000000
26.800421 32.866762 391.313707 -0.499112 -1.019557 25.649843 -0.009118 -0.305569 -25.672105 -0.244234 -0.416525 -0.054049 0.617411 1.716143 0.060796 0.000000 0.000000 0.000000 -1.322787 -5.199613 2.764990 -6.908046 -3.694196 1.585593 -15.115958 27.903858 -37.771932 36.402504 6.614430 34.099789 0.000000 0.000000 0.000000 0.000000 0.000000 0.000000 2.667608 0.739474 -0.356813 -0.162051 1.236906 -0.653630 -3.871500 -1.807323 -0.684744 1.808610 4.455758 1.049780 0.000000 0.000000 0.000000 0.000000 0.000000 0.000000 0.891321 0.702972 -25.659752 -0.000000 0.000000 0.000000 0.338737 -0.187752 -1.307600 0.000000 0.000000 0.000000 0.100846 1.563334 -27.289285 -0.227890 -1.046218 1.817644 -2.603930 -5.217487 8.860609 0.000000 0.000000 0.000000
26.978072 32.533924 391.428877 -0.104015 -1.443555 24.812838 -0.095336 -0.179882 -24.821582 -0.168950 -0.470123 -0.041002 1.092441 0.124739 -0.127091 0.000000 0.000000 0.000000 -2.349994 -5.182540 3.027921 -9.151199 -12.252347 5.676432 -74.553954 29.141102 -14.176571 96.627851 22.608396 11.263738 0.000000 0.000000 0.000000 0.000000 0.000000 0.000000 2.961849 -0.170852 -0.279115 -0.960089 2.864942 -0.405090 -4.607827 -1.244692 -1.569758 -1.446405 7.529201 0.905272 0.000000 0.000000 0.000000 0.000000 0.000000 0.000000 0.412548 3.243667 -24.124836 1.071010 -1.686635 -0.669962 0.469459 -0.339860 -1.648558 0.000000 0.000000 0.000000 -0.342271 2.502603 -26.825961 -0.160699 -1.372230 2.243649 -3.196614 4.351646 2.359750 0.000000 0.000000 0.000000
